<svg width="336" height="132" viewBox="0 0 336 132" fill="none" xmlns="http://www.w3.org/2000/svg">
<path d="M312.22 76.15C319.29 76.15 322.83 73.77 322.83 69.02C322.83 66.4 320.82 64.19 316.81 62.39C315.11 61.62 313.25 60.9 311.23 60.23C309.24 59.57 307.33 58.77 305.48 57.85C303.64 56.93 301.91 55.93 300.28 54.87C298.7 53.76 297.31 52.51 296.13 51.11C293.7 48.16 292.48 44.42 292.48 39.89C292.48 34.36 294.78 29.98 299.39 26.74C303.48 23.83 308.51 22.37 314.48 22.37C320.89 22.37 326.25 23.62 330.56 26.13C332.03 27.01 332.77 28.03 332.77 29.17C332.77 30.79 332.33 32.58 331.44 34.53C330.59 36.45 329.58 37.4 328.4 37.4C327.22 37.4 326.21 37.16 325.25 36.68C324.33 36.2 323.48 35.8 322.71 35.46C321.97 35.09 321.18 34.8 320.33 34.58C318.49 34.03 316.78 33.75 315.19 33.75C313.6 33.75 312.39 33.86 311.43 34.08C310.47 34.3 309.61 34.65 308.83 35.13C306.95 36.27 306.01 37.67 306.01 39.33C306.01 40.99 306.38 42.26 307.12 43.14C307.89 44.02 308.94 44.83 310.27 45.57C311.6 46.31 313.18 47.04 315.02 47.78L320.99 50.27C325.82 52.37 329.08 54.27 330.77 55.96C334.08 59.35 335.74 63.27 335.74 67.73C335.74 73.33 333.83 77.94 329.99 81.55C325.75 85.49 319.73 87.46 311.92 87.46C304.11 87.46 298.05 85.93 294.07 82.87C292.12 81.4 291.14 80.07 291.14 78.89C291.14 77.71 291.34 76.66 291.75 75.74C292.19 74.78 292.74 73.68 293.41 72.42C294.11 71.13 295.03 70.49 296.17 70.49C297.31 70.49 298.58 71.02 299.87 72.09C301.2 73.12 303 74.06 305.29 74.91C307.57 75.72 309.88 76.13 312.2 76.13L312.22 76.15Z" fill="white"/>
<path d="M238.11 57.96L238.06 59.01C238.06 64.06 239.66 68.11 242.87 71.17C246.22 74.41 250.77 76.03 256.52 76.03C261.75 76.03 266.61 74.46 271.11 71.33C271.96 70.74 272.71 70.45 273.38 70.45C274.74 70.45 275.77 71.13 276.47 72.49L277.96 75.58C278.29 76.32 278.46 77.11 278.46 77.96C278.46 78.81 278.07 79.69 277.3 80.61C276.56 81.49 275.59 82.3 274.37 83.04C273.15 83.78 271.74 84.42 270.11 84.97C268.53 85.52 266.89 85.98 265.19 86.35C261.8 87.09 258.26 87.46 254.58 87.46C250.9 87.46 247.17 86.76 243.42 85.36C239.7 83.96 236.48 81.92 233.75 79.23C227.89 73.52 224.96 65.8 224.96 56.08C224.96 39.02 230.97 28.41 242.98 24.25C246.74 22.96 250.59 22.32 254.53 22.32C258.47 22.32 261.88 22.74 264.64 23.59C267.44 24.44 269.85 25.69 271.88 27.35C276.15 30.85 278.29 35.73 278.29 41.99C278.29 48.25 275.79 52.84 270.77 56.08C266.39 58.92 260.6 60.34 253.42 60.34C249 60.34 243.9 59.55 238.11 57.96ZM265.3 41.83C265.3 36.56 261.76 33.93 254.69 33.93C247.62 33.93 243.23 36.4 240.54 41.34C239.58 43.07 238.96 45.21 238.66 47.75C241.83 49.33 245.86 50.13 250.76 50.13C260.45 50.13 265.29 47.37 265.29 41.84L265.3 41.83Z" fill="white"/>
<path d="M136.42 75.81C136.42 75.81 136.41 75.78 136.41 75.77C135.6 71.85 134.28 67.27 132.45 62.05C133.67 56.34 134.27 51.61 134.27 47.85C134.27 39.37 131.53 32.82 126.04 28.17C121.4 24.31 115.54 22.37 108.47 22.37C100.69 22.37 94.49 23.81 89.84 26.68C87.41 28.19 86.2 29.76 86.2 31.38C86.2 32.26 86.69 33.7 87.69 35.69C88.61 37.64 89.57 38.62 90.56 38.62C91.23 38.62 92 38.38 92.88 37.9C97.52 35.43 102.09 34.2 106.59 34.2C111.6 34.2 115.5 35.43 118.3 37.9C119.67 39.15 120.72 40.72 121.45 42.6C122.19 44.48 122.56 46.36 122.56 48.23C122.56 50.1 122.5 51.68 122.39 52.93C117.9 49.14 112.41 47.24 105.92 47.24C99.43 47.24 94.14 48.7 90.01 51.61C85 55.22 82.49 60.43 82.49 67.24C82.49 73.47 84.78 78.5 89.35 82.33C91.37 84.03 93.69 85.3 96.31 86.14C98.92 87.03 101.54 87.47 104.16 87.47C106.78 87.47 109.17 87.18 111.34 86.59C117.49 84.89 122.01 81.41 124.88 76.14C125.15 77.54 125.38 78.88 125.57 80.15C125.88 81.71 126.21 83.4 126.52 85.23C126.53 85.23 126.53 85.25 126.54 85.26C126.83 85.81 127.7 86.09 129.13 86.09H134.5C136.41 86.09 137.37 85.11 137.37 83.16C137.3 81.03 136.99 78.58 136.42 75.81ZM116.42 73.05C115.25 73.97 113.85 74.72 112.22 75.31C110.6 75.9 108.52 76.2 105.98 76.2C103.44 76.2 101.21 75.41 99.18 73.82C98.23 73.05 97.47 72.09 96.92 70.95C96.4 69.77 96.14 68.44 96.14 66.97C96.14 65.5 96.46 64.15 97.08 63.04C97.75 61.94 98.83 60.83 100.34 59.73C101.85 58.59 103.95 58.02 106.64 58.02C110.11 58.02 113.11 58.75 115.65 60.23C118.49 61.81 120.02 63.98 120.24 66.75C120.24 68.96 118.97 71.06 116.42 73.05Z" fill="currentColor"/>
<path d="M10.55 75.65C7.23 71.82 4.64 67.14 2.76 61.61C0.92 56.08 0 49.91 0 43.1C0 36.29 0.96 30.22 2.87 24.92C4.82 19.61 7.53 15.12 10.99 11.44C18.21 3.81 27.79 0 39.73 0C49.42 0 57.12 2.27999 62.83 6.84999C65.26 8.83999 67.05 10.98 68.19 13.26C69.37 15.54 69.96 17.31 69.96 18.57C69.96 19.83 69.92 20.76 69.85 21.5C69.81 22.24 69.61 22.96 69.24 23.66C68.32 25.32 66.59 26.15 64.05 26.15H59.3C58.19 26.15 57.48 25.84 57.14 25.21C56.73 24.47 56.46 23.5 56.31 22.28C56.16 21.03 55.79 19.83 55.2 18.69C54.65 17.55 53.73 16.48 52.44 15.48C49.42 13.16 45.42 12 40.45 12C35.48 12 31.52 12.79 28.46 14.38C25.4 15.93 22.86 18.08 20.83 20.85C16.85 26.34 14.86 33.67 14.86 42.84C14.86 52.01 16.67 59.47 20.28 65.22C24.48 71.81 30.65 75.11 38.79 75.11C47.59 75.11 53.03 72.73 55.09 67.98C55.72 66.62 56.03 65.29 56.03 64C56.03 62.71 55.85 61.37 55.48 60.08C55.11 58.79 54.47 57.56 53.55 56.38C51.49 53.58 48.41 51.68 44.32 50.69C43.14 50.4 42.07 49.84 41.11 49.03C40.19 48.18 39.73 47 39.73 45.49V43.56C39.73 42.82 40.02 42.2 40.61 41.68C41.2 41.13 41.92 40.85 42.77 40.85H68.63C70.69 40.85 71.72 41.75 71.72 43.56V49.58C71.72 50.32 71.41 50.91 70.78 51.35C70.19 51.79 69.47 52.01 68.62 52.01H60.55C64.64 53.85 67.38 56.93 68.78 61.24C69.3 62.82 69.55 64.45 69.55 66.1C69.55 67.75 69.33 69.29 68.89 70.8C68.45 72.31 67.73 73.84 66.73 75.39C65.74 76.94 64.43 78.45 62.81 79.92C61.23 81.36 59.27 82.65 56.95 83.79C51.83 86.26 45.99 87.49 39.43 87.49C32.87 87.49 27.25 86.48 22.58 84.45C17.9 82.42 13.89 79.49 10.53 75.66L10.55 75.65Z" fill="currentColor"/>
<path d="M240.99 48.7L239.02 58.08L237.51 57.97C224.36 55.22 212.94 47.29 203.19 38.35C194.36 30.25 188.42 21.69 173.14 13.58C163.44 8.43 150.68 11.83 145.88 23.72C142.83 31.28 144.71 39.66 146.92 47.18C149.58 56.26 155.58 63.91 160.38 71.92C165.3 80.15 169.72 88.75 172.48 97.96C174.9 106 175.88 115.21 171.5 122.37C169.21 126.11 165.58 128.97 161.48 130.53C155.65 132.75 148.86 132.29 143.37 129.32C134.78 124.66 130.29 114.8 128.48 105.19C126.67 95.58 126.93 85.66 124.85 76.11C128.56 75.52 132.27 74.93 135.98 74.34C137.65 81.04 137.96 87.99 139 94.82C140.04 101.65 141.92 108.58 146.22 113.98C147.84 116.02 150.32 117.95 152.83 117.23C154.23 116.82 155.28 115.66 156.09 114.44C158.62 110.62 159.48 105.86 159.23 101.28C158.88 95.05 156.87 88.69 154.12 83.11C149.28 73.31 142.46 63.8 139.37 53.26C136.34 42.91 136.5 31.08 141.75 21.45C147.68 10.57 159.34 5.16 171.53 6.03C177.32 6.45 182.98 8.2 188.05 11C197.51 16.22 204.06 24.36 212.03 31.34C219.04 37.48 228.25 45.82 239.5 48.18L241 48.69L240.99 48.7Z" fill="currentColor"/>
<path d="M211.65 45.43C208.7 43.21 205.88 40.82 203.19 38.35C197.16 32.82 191.45 27.11 184.96 22.45C185.16 22.43 185.37 22.42 185.58 22.41C186.12 22.38 186.66 22.37 187.21 22.37C191.27 22.37 194.88 23.16 198.05 24.75C201.22 26.3 203.85 28.43 205.95 31.16C208.87 34.95 210.76 39.66 211.63 45.27C211.64 45.32 211.65 45.38 211.65 45.43Z" fill="white"/>
<path d="M211.65 45.43C211.65 45.43 211.64 45.32 211.63 45.27C210.76 39.66 208.87 34.95 205.95 31.16C203.85 28.43 201.22 26.3 198.05 24.75C194.88 23.16 191.27 22.37 187.21 22.37C186.66 22.37 186.12 22.38 185.58 22.41C185.37 22.42 185.16 22.43 184.96 22.45C181.84 22.68 179 23.39 176.44 24.58C171.98 26.65 168.46 29.92 165.88 34.42C165.37 31.14 164.61 28.47 163.62 26.41C162.77 24.64 161.33 23.75 159.31 23.75H155.94C154.87 23.75 153.98 24.1 153.28 24.8C152.62 25.5 152.29 26.28 152.29 27.12C152.29 27.96 152.35 28.64 152.46 29.11C153.56 33.87 154.11 41.42 154.11 51.77V62.01C156.19 65.34 158.39 68.59 160.38 71.92C163.01 76.31 165.49 80.81 167.65 85.45C167.58 82.04 167.41 79.06 167.16 76.53C171.24 83.82 177.45 87.47 185.78 87.47C194.11 87.47 200.24 83.99 205.18 77.03C209.85 70.47 212.19 62.44 212.19 52.93C212.19 50.27 212.01 47.77 211.65 45.43ZM195.01 68.24C192.43 73.43 188.47 76.03 183.13 76.03C178.89 76.03 175.09 74.23 171.74 70.62C168.21 66.78 166.44 62.22 166.44 56.91V53.87C166.44 48.6 168.11 43.98 171.47 40C174.93 35.95 179.11 33.92 184.01 33.92C188.36 33.92 191.84 35.84 194.45 39.67C196.89 43.21 198.1 47.52 198.1 52.6C198.1 58.9 197.07 64.11 195.01 68.24Z" fill="currentColor"/>
</svg>
